<?xml version="1.0" standalone="no"?>
<!DOCTYPE svg PUBLIC "-//W3C//DTD SVG 20010904//EN"
 "http://www.w3.org/TR/2001/REC-SVG-20010904/DTD/svg10.dtd">
<svg version="1.0" xmlns="http://www.w3.org/2000/svg"
 width="1280.000000pt" height="826.000000pt" viewBox="0 0 1280.000000 826.000000"
 preserveAspectRatio="xMidYMid meet">
<g transform="translate(0.000000,826.000000) scale(0.100000,-0.100000)"
fill="white" stroke="none">
<path d="M3820 8250 c-912 -31 -1773 -90 -2103 -145 -52 -9 -111 -27 -145 -44
-104 -53 -123 -78 -231 -298 l-100 -202 -43 -5 c-24 -3 -196 -20 -382 -36
-331 -30 -339 -30 -360 -12 -12 10 -81 72 -154 136 -73 65 -135 116 -138 113
-5 -5 24 -538 32 -572 4 -18 131 -105 154 -105 6 0 50 16 100 36 l90 36 0 49
0 49 100 0 c95 0 100 -1 104 -22 8 -38 48 -450 44 -454 -2 -2 -78 -8 -169 -14
-375 -25 -559 -74 -598 -160 -20 -44 -21 -316 -2 -460 65 -495 250 -1263 348
-1455 20 -39 117 -162 232 -295 81 -94 90 -109 91 -145 1 -107 67 -321 150
-490 63 -129 131 -222 196 -268 78 -54 254 -69 504 -42 151 16 253 38 288 61
20 13 23 21 17 50 -3 19 -2 34 2 34 11 0 72 -38 114 -71 19 -15 75 -49 125
-75 211 -112 487 -280 769 -467 248 -166 338 -229 915 -647 278 -201 587 -423
686 -493 l182 -127 192 -2 193 -3 24 -130 c132 -723 484 -1488 716 -1557 74
-22 362 -16 497 10 185 37 373 93 471 143 82 41 147 290 150 574 l1 110 22
-100 c24 -106 44 -175 55 -187 9 -11 999 270 1686 477 198 60 394 121 750 235
449 144 964 327 1357 483 103 41 189 70 190 65 7 -20 125 -42 228 -42 96 0
112 2 184 32 166 68 278 175 331 314 10 27 18 48 19 48 1 0 16 -4 33 -9 60
-17 100 3 207 108 164 159 238 292 321 575 19 66 36 120 38 121 1 0 27 9 57
18 78 24 126 66 145 129 20 70 19 131 -4 177 l-20 38 50 49 c28 27 77 88 109
135 110 164 157 342 146 549 -3 63 -10 132 -15 154 -7 27 -4 81 11 190 23 176
20 276 -9 332 -79 154 -711 457 -1530 735 -696 237 -1571 482 -2102 590 -111
23 -114 25 -127 56 -22 52 -18 58 44 74 l57 15 17 64 c9 36 17 97 17 137 1 61
-2 76 -22 98 -43 51 -147 51 -297 0 -41 -14 -77 -22 -80 -18 -8 10 -137 212
-392 614 -301 474 -446 672 -539 735 -136 91 -809 203 -2109 348 -504 57 -511
57 -1090 61 -305 2 -665 0 -800 -5z m1650 -54 c1326 -145 2098 -262 2289 -346
116 -52 241 -219 653 -870 260 -410 318 -502 327 -512 4 -4 49 6 101 23 100
32 191 46 234 35 40 -10 60 -58 53 -131 -8 -80 -27 -156 -41 -160 -6 -2 -37
-11 -68 -20 l-56 -16 22 -61 22 -62 254 -57 c726 -162 1521 -395 2250 -659
700 -253 1191 -505 1246 -637 19 -44 18 -186 -2 -325 -9 -62 -13 -133 -10
-157 l6 -44 -28 39 c-61 84 -146 133 -210 121 -20 -4 -23 -1 -18 17 3 11 6 29
6 38 0 10 14 25 31 34 30 15 31 18 25 60 -22 160 -190 308 -555 489 -382 189
-995 402 -2031 705 -135 40 -386 114 -557 165 l-313 94 -112 -30 c-156 -41
-398 -99 -411 -99 -7 0 -12 17 -12 42 0 45 -2 46 -125 79 l-45 12 140 47 c187
62 196 67 223 120 19 37 23 56 19 110 -2 36 -13 87 -25 113 -12 26 -89 152
-172 280 -84 127 -250 385 -371 572 -303 471 -326 503 -369 515 -83 23 -750 7
-1435 -35 -727 -45 -1566 -119 -1803 -161 -134 -23 -249 -97 -268 -171 -4 -14
-14 -23 -25 -23 -16 0 -19 -7 -19 -41 0 -24 4 -38 10 -34 6 4 10 -24 11 -77 1
-169 15 -320 70 -713 61 -442 99 -657 126 -703 43 -75 139 -169 207 -201 l61
-29 150 9 c83 5 357 25 610 45 681 53 618 52 786 14 125 -29 163 -33 294 -34
l150 -1 3 24 c2 13 1 43 -3 67 -5 34 -11 44 -31 51 -17 6 77 21 313 51 400 51
758 101 975 136 l157 26 63 -20 c35 -11 85 -33 111 -50 40 -25 58 -30 115 -31
81 -1 87 0 -238 -67 -763 -158 -1486 -250 -2780 -352 -574 -45 -655 -52 -659
-56 -9 -9 422 -209 1019 -474 1097 -487 1470 -676 1832 -930 124 -86 304 -266
345 -345 31 -59 56 -157 46 -182 -3 -7 1 -15 9 -18 8 -3 14 -26 16 -62 2 -32
8 -63 13 -69 7 -8 -2 -13 -28 -18 -96 -15 -249 -112 -354 -223 -149 -158 -248
-465 -236 -729 5 -128 16 -168 60 -226 73 -97 201 -145 360 -136 67 4 93 10
142 36 117 60 245 184 337 326 47 73 52 79 39 43 -10 -25 -9 -28 6 -23 378
112 1782 534 1918 576 105 32 341 104 525 160 379 115 943 292 1099 345 58 19
106 35 107 35 0 0 4 -23 7 -51 9 -71 35 -117 89 -155 l47 -31 -25 -12 c-18 -8
-23 -17 -20 -33 3 -13 8 -58 11 -101 6 -66 9 -77 23 -73 140 44 216 66 221 66
17 -1 -49 -30 -81 -35 -35 -6 -38 -10 -53 -63 -38 -137 -89 -286 -120 -351
-53 -110 -104 -177 -222 -294 -94 -91 -115 -107 -142 -107 -18 0 -41 4 -51 10
-14 8 -46 -3 -147 -51 -975 -462 -2243 -897 -4281 -1468 -178 -50 -325 -91
-327 -91 -20 0 -132 578 -145 747 -60 749 -403 1572 -853 2039 -133 139 -248
227 -382 294 -131 66 -232 92 -360 93 -253 3 -434 -136 -545 -418 -18 -44 -33
-82 -35 -83 -4 -4 -544 275 -557 287 -7 6 -12 237 -33 1408 l-5 292 98 -45
c210 -99 477 -221 937 -429 1079 -488 1519 -712 1890 -966 256 -174 432 -354
475 -485 6 -19 16 -34 21 -34 12 0 -33 100 -71 155 -104 152 -332 335 -655
527 -351 209 -726 395 -1496 744 -389 176 -927 421 -1102 502 -42 20 -76 41
-74 46 3 8 47 41 201 149 17 12 3 18 -137 58 -152 43 -156 45 -138 62 10 10
36 21 58 24 l40 5 13 91 c8 57 18 96 27 102 21 16 19 79 -5 119 -18 31 -20 42
-11 103 9 59 4 124 -40 498 -73 617 -110 816 -156 855 -17 14 -16 16 -54 -170
-161 -782 -234 -1136 -246 -1192 -8 -37 -15 -72 -15 -77 0 -7 50 -11 146 -11
110 0 154 -4 178 -15 25 -12 45 -13 91 -7 33 5 67 12 76 16 32 14 55 -94 24
-111 -10 -6 -19 -40 -28 -98 l-12 -90 -33 -3 c-20 -2 -46 -16 -69 -38 l-37
-36 -176 -13 c-96 -8 -231 -15 -300 -17 l-124 -3 -8 45 c-14 73 -25 324 -15
331 5 4 59 9 120 13 62 4 115 11 119 14 38 37 299 1463 278 1517 -6 17 -22 27
-52 35 -24 6 -50 13 -58 15 -71 20 -689 129 -797 141 -60 6 -61 6 -76 -23 -60
-116 -298 -1320 -285 -1445 3 -36 -37 -19 383 -164 149 -51 266 -93 260 -93
-22 -2 -243 71 -635 208 -101 35 -352 110 -1180 352 -113 33 -225 70 -250 81
-262 122 -246 112 -295 186 l-45 68 -28 265 -27 264 -127 3 -127 3 -3 -57 -3
-58 -69 -28 c-38 -15 -75 -28 -83 -28 -10 0 -109 57 -131 75 -3 2 -32 439 -32
488 l0 39 88 -79 c48 -43 110 -99 138 -124 l52 -45 392 36 392 35 103 205
c113 225 137 256 236 302 66 31 123 42 354 67 403 45 1099 90 1709 111 121 4
525 7 896 6 658 -3 681 -3 920 -30z m2383 -491 c21 -9 166 -226 502 -750 120
-187 248 -385 285 -440 84 -125 107 -171 121 -236 14 -66 -2 -147 -35 -178
-13 -12 -95 -45 -190 -77 l-168 -55 -72 16 c-366 84 -832 88 -1221 10 -127
-26 -304 -70 -313 -80 -8 -7 0 -7 228 15 368 34 665 45 862 32 97 -7 200 -17
230 -24 l53 -12 -80 -13 c-204 -33 -587 -87 -982 -138 l-433 -56 -117 15
c-386 48 -612 60 -1138 60 -473 0 -775 -9 -775 -24 0 -8 54 -13 585 -45 451
-28 600 -39 765 -61 106 -14 150 -24 104 -24 -10 0 -125 -9 -254 -20 -326 -27
-760 -58 -915 -66 -122 -6 -133 -5 -174 16 -56 28 -139 106 -186 174 -33 48
-38 66 -65 227 -61 355 -130 879 -130 978 l0 30 128 4 127 3 -132 2 -133 2 0
39 0 39 129 32 c170 42 165 42 172 0 6 -34 6 -34 8 -5 2 58 -4 59 -157 21 -77
-20 -143 -36 -146 -36 -4 0 -6 42 -6 93 l0 93 113 34 c133 39 155 49 111 50
-17 0 -33 -3 -37 -6 -7 -8 -177 -13 -177 -5 0 17 42 72 72 95 84 63 161 81
543 121 569 59 1437 122 2155 155 218 10 717 7 743 -5z m-4663 -182 c240 -39
593 -108 628 -123 32 -14 27 -27 -10 -24 l-33 3 30 -7 c28 -7 30 -10 27 -52
-7 -122 -24 -121 -197 7 -122 90 -127 95 -90 89 97 -15 113 -14 30 4 -49 10
-92 17 -94 15 -2 -2 61 -51 140 -109 103 -77 150 -106 171 -106 27 0 29 -2 24
-32 -110 -662 -189 -1082 -234 -1248 l-17 -65 -60 -2 c-33 -2 -96 -8 -140 -13
l-80 -10 -190 64 c-322 108 -490 168 -499 176 -34 32 222 1344 285 1461 11 22
-7 24 309 -28z m1230 -219 c-91 -29 -90 -29 -90 -5 0 21 23 27 115 29 l50 0
-75 -24z m-435 -164 c26 -129 48 -293 101 -740 41 -338 43 -380 25 -462 l-12
-57 -45 -7 c-24 -3 -59 -3 -76 1 -18 4 -103 10 -189 12 l-157 4 19 87 c22 105
210 1017 245 1192 14 69 28 132 31 140 9 25 34 -46 58 -170z m335 155 c0 -14
-4 -25 -10 -25 -5 0 -10 11 -10 25 0 14 5 25 10 25 6 0 10 -11 10 -25z m-3464
-627 l49 -72 133 -62 c74 -34 129 -65 124 -68 -5 -3 -50 -21 -100 -40 l-90
-34 -128 49 c-197 76 -697 176 -775 156 -27 -7 -23 8 7 32 71 56 360 106 635
110 l95 1 50 -72z m-461 -122 c66 -15 163 -36 216 -47 81 -17 340 -106 357
-124 3 -3 0 -96 -6 -208 -7 -111 -14 -269 -17 -352 -3 -82 -8 -177 -11 -210
l-5 -60 -76 3 c-108 5 -157 -11 -219 -72 -28 -28 -53 -57 -56 -65 -7 -24 -392
191 -441 247 -20 22 -66 267 -92 492 -15 127 -20 385 -8 415 5 16 19 17 122
12 70 -3 164 -15 236 -31z m1156 -190 c195 -57 487 -143 649 -191 162 -47 303
-88 313 -91 13 -4 -4 -19 -65 -58 -46 -28 -102 -65 -126 -80 l-42 -29 -228 83
c-325 118 -1019 377 -1038 388 -13 7 4 17 72 45 49 19 94 35 100 36 6 1 170
-46 365 -103z m-251 -103 c340 -126 527 -196 745 -274 121 -44 223 -83 227
-87 3 -4 0 -77 -9 -162 -17 -179 -22 -721 -10 -1027 l8 -201 -478 248 -478
249 -31 78 c-76 195 -163 330 -266 410 l-61 48 7 195 c8 221 23 509 32 587 l5
52 67 -25 c37 -14 146 -55 242 -91z m1472 -271 c203 -72 328 -112 491 -157 32
-9 56 -19 53 -23 -3 -5 0 -68 5 -142 5 -73 8 -134 7 -135 -2 -1 -75 24 -163
57 -88 32 -308 113 -490 180 -181 66 -341 125 -354 130 -24 9 -24 9 15 36 49
33 206 132 210 132 2 0 104 -35 226 -78z m5338 24 c158 -25 427 -89 443 -105
5 -5 6 -23 2 -40 l-7 -31 -68 0 c-60 0 -76 4 -117 30 -59 38 -174 75 -301 97
-181 32 -962 17 -1154 -23 -16 -3 -28 -3 -28 -1 0 8 164 45 301 67 207 33 292
39 539 35 189 -3 265 -9 390 -29z m1190 -121 c102 -31 374 -112 605 -180 1393
-411 1993 -633 2355 -869 179 -117 280 -238 280 -336 0 -35 -2 -37 -42 -47
-24 -5 -142 -37 -263 -71 -622 -172 -1549 -398 -2550 -621 -371 -82 -1617
-351 -1629 -351 -2 0 -6 24 -9 53 -20 163 -190 353 -507 562 -318 211 -761
432 -1630 815 -507 224 -724 322 -913 412 l-171 83 74 7 c41 4 251 21 465 38
1660 130 2589 264 3515 509 102 27 196 49 210 50 14 0 108 -24 210 -54z
m-6610 -144 c675 -246 644 -234 650 -261 6 -24 9 -25 95 -28 86 -2 101 -7 351
-100 l262 -97 7 -490 c4 -269 10 -650 14 -845 4 -195 7 -356 6 -358 -1 -1
-404 207 -896 462 -811 422 -894 468 -901 493 -3 15 -11 156 -16 313 -10 294
-1 739 18 921 5 55 10 110 10 120 0 18 1 18 48 0 26 -10 184 -68 352 -130z
m3280 28 c257 -13 761 -66 776 -82 2 -1 6 -25 9 -53 l7 -51 -32 -7 c-81 -16
-260 2 -433 43 -241 58 -516 86 -1224 127 -167 10 -300 20 -298 23 10 9 504
19 755 14 135 -2 333 -8 440 -14z m-5560 -299 c85 -45 156 -84 158 -85 1 -1
-2 -14 -8 -29 -16 -42 -24 -162 -12 -170 7 -4 10 18 11 63 2 191 118 302 302
289 63 -5 72 -9 131 -55 108 -84 221 -259 273 -423 10 -30 22 -63 27 -73 30
-60 142 -486 184 -699 9 -50 24 -93 33 -101 18 -16 780 -473 826 -496 16 -8
410 -251 875 -539 465 -289 860 -534 879 -545 l34 -21 -6 165 c-19 459 -28
771 -24 776 4 3 537 -268 555 -283 2 -1 -5 -40 -16 -86 -53 -218 -77 -510 -69
-828 7 -267 25 -519 38 -543 6 -11 9 -20 7 -22 -5 -4 -242 164 -823 585 -880
636 -1152 818 -1593 1064 -96 53 -202 116 -237 141 -35 25 -78 50 -97 56 -18
5 -106 47 -195 92 -158 80 -163 83 -182 127 -23 54 -47 179 -60 315 -7 71 -23
140 -55 240 -121 378 -213 589 -334 771 -102 152 -196 223 -294 224 -60 0
-108 -39 -134 -108 -26 -71 -31 -314 -9 -484 16 -130 70 -422 81 -439 18 -30
-14 5 -97 104 -109 129 -170 209 -192 252 -55 109 -185 577 -252 903 l-7 33
64 -44 c35 -24 133 -81 218 -127z m3710 -5 c69 -20 131 -38 139 -41 9 -3 -4
-16 -35 -36 -27 -17 -75 -51 -107 -76 l-58 -45 -72 25 c-171 62 -417 155 -421
159 -3 3 80 11 185 17 104 7 200 17 212 22 12 5 24 9 27 9 3 1 62 -15 130 -34z
m-3293 -120 c28 -15 57 -33 65 -42 12 -14 10 -14 -19 0 -37 20 -95 22 -126 6
-36 -20 -56 -51 -79 -124 -21 -64 -23 -89 -23 -305 0 -129 3 -269 7 -310 5
-58 4 -66 -3 -35 -22 92 -51 319 -56 445 -14 325 66 448 234 365z m72 -72 c74
-44 120 -103 205 -263 132 -250 306 -745 306 -871 0 -61 22 -198 45 -276 24
-83 61 -116 215 -193 85 -42 139 -76 143 -87 2 -10 8 -25 11 -34 17 -39 -172
-78 -420 -86 -94 -3 -192 -3 -217 1 l-47 7 25 33 c144 188 188 682 96 1070
-37 155 -130 369 -217 502 -43 65 -133 151 -179 169 -135 57 -188 -40 -205
-380 l-8 -170 3 200 c3 139 8 220 20 264 37 152 103 185 224 114z m-48 -37
c43 -15 107 -65 139 -108 l22 -30 -38 26 c-105 71 -211 -2 -251 -172 -26 -112
-23 -368 6 -512 43 -209 112 -441 162 -542 82 -167 205 -237 319 -180 l40 19
-7 -26 c-21 -88 -87 -215 -118 -227 -68 -27 -216 152 -306 369 -83 202 -118
402 -139 798 -16 308 8 509 71 571 30 31 47 33 100 14z m97 -110 c15 -8 36
-24 47 -36 l20 -23 -32 17 c-81 41 -149 5 -185 -99 -26 -76 -37 -359 -18 -499
35 -267 108 -481 206 -612 52 -68 94 -102 160 -129 47 -19 52 -23 32 -29 -79
-21 -146 8 -217 95 -72 90 -132 257 -207 574 -27 112 -29 135 -29 330 0 171 3
220 17 263 43 134 123 191 206 148z m30 -56 c50 -31 78 -67 121 -155 46 -96
56 -125 42 -125 -6 0 -11 -7 -11 -16 0 -9 -4 -14 -8 -12 -5 2 -77 50 -161 107
-163 113 -163 113 -122 171 36 51 86 62 139 30z m1012 -442 l275 -143 8 -105
c4 -58 19 -228 33 -378 14 -150 24 -277 22 -282 -3 -10 -790 456 -813 482 -7
7 -22 63 -34 123 -25 132 -110 469 -145 578 l-25 77 202 -104 c111 -58 326
-170 477 -248z m-1014 215 c150 -102 152 -103 166 -81 14 21 16 19 37 -52 55
-181 97 -414 108 -595 7 -135 -11 -299 -38 -344 -18 -29 -22 -31 -57 -25 -20
4 -50 13 -65 21 l-28 14 23 37 c12 20 53 85 90 145 37 59 64 107 59 107 -5 0
-48 -63 -96 -141 -97 -156 -87 -152 -156 -75 l-37 40 111 118 c61 65 115 118
119 118 20 0 2 -35 -82 -160 -50 -73 -88 -135 -86 -137 2 -2 48 60 101 138 90
131 96 143 86 167 -12 25 -13 24 -127 -96 -64 -67 -119 -122 -122 -122 -4 0
-13 10 -21 22 -12 20 -11 24 10 41 13 10 68 62 122 114 l99 96 -12 43 c-7 24
-14 44 -15 44 -2 0 -65 -38 -140 -85 -76 -47 -140 -83 -144 -80 -3 4 -11 21
-17 38 l-11 32 149 78 c148 78 148 78 148 113 l0 35 -42 -5 c-24 -3 -101 -7
-173 -8 l-130 -3 -3 31 -3 31 68 6 c37 4 100 7 138 7 106 0 115 5 115 54 l0
41 -170 45 -170 45 0 33 c0 30 2 33 23 26 106 -34 302 -93 303 -91 0 1 4 16 7
34 6 31 5 32 -159 138 -116 76 -163 112 -160 122 4 8 6 21 6 29 0 18 -10 25
176 -103z m-23 -63 c121 -78 147 -99 147 -119 0 -17 -4 -22 -17 -19 -10 3 -82
25 -160 48 l-143 44 0 50 c0 57 9 98 20 94 4 -2 73 -46 153 -98z m195 75 c-3
-3 -9 2 -12 12 -6 14 -5 15 5 6 7 -7 10 -15 7 -18z m64 -165 c38 -109 66 -244
72 -345 5 -86 3 -80 -20 60 -18 110 -54 254 -88 355 -14 41 -26 77 -25 80 1 9
31 -64 61 -150z m-545 -82 c-2 -13 -4 -3 -4 22 0 25 2 35 4 23 2 -13 2 -33 0
-45z m283 -11 l155 -43 3 -31 3 -31 -108 -6 c-59 -4 -129 -9 -155 -11 -25 -3
-49 -2 -51 2 -9 16 -18 163 -10 163 4 0 78 -20 163 -43z m2235 -591 l890 -463
11 -354 c7 -195 15 -405 19 -468 4 -62 3 -111 -1 -108 -1594 986 -1749 1085
-1756 1119 -4 18 -19 157 -32 308 -37 405 -38 430 -29 430 4 0 408 -209 898
-464z m9301 402 c-3 -13 -6 -28 -6 -33 0 -6 -16 -17 -35 -23 -103 -38 -228
-170 -301 -318 -67 -137 -95 -258 -101 -441 l-6 -153 -197 -64 c-178 -59 -557
-176 -1400 -434 -213 -65 -1838 -554 -2021 -608 -13 -3 -9 15 19 93 51 145 61
189 68 288 7 104 -16 265 -47 331 -45 95 -178 185 -316 214 -48 10 -62 17 -67
34 -8 31 -7 96 2 96 10 0 1165 250 1522 330 1004 223 1954 457 2660 654 229
63 235 64 226 34z m-11346 -37 c0 -27 -281 -177 -292 -156 -6 10 -38 145 -38
160 0 4 91 9 253 13 70 2 77 0 77 -17z m11470 -46 c25 -14 25 -14 -15 -15
-119 -1 -277 -155 -413 -400 -42 -76 -102 -333 -102 -435 0 -76 68 -180 130
-200 28 -9 116 10 175 36 28 13 55 25 60 27 6 3 -3 -9 -19 -26 -30 -33 -142
-95 -189 -106 -21 -5 -40 0 -72 19 -68 40 -85 71 -102 193 -26 180 8 417 82
578 67 147 177 272 280 320 58 27 146 31 185 9z m23 -36 c50 -13 102 -91 112
-166 9 -68 -12 -304 -32 -368 -38 -119 -140 -284 -223 -358 -67 -61 -149 -98
-225 -105 -55 -4 -64 -2 -93 23 -30 25 -62 73 -62 91 0 4 11 -3 24 -15 68 -64
156 -38 285 84 113 109 162 200 205 385 26 108 17 237 -20 322 -20 45 -71 73
-114 63 -39 -9 -38 0 2 21 65 34 89 38 141 23z m-11462 -75 c3 -15 -26 -49
-113 -133 l-118 -113 -25 53 c-14 30 -25 59 -25 64 0 6 60 47 132 92 135 83
142 85 149 37z m11388 6 c26 -13 47 -72 62 -169 10 -67 10 -94 -1 -149 -17
-89 -62 -220 -96 -282 -34 -63 -180 -205 -237 -230 -78 -36 -141 -19 -172 46
-23 49 -15 149 25 308 23 94 40 136 77 199 76 125 174 250 213 269 38 20 101
23 129 8z m208 -227 c-2 -16 -4 -5 -4 22 0 28 2 40 4 28 2 -13 2 -35 0 -50z
m-10 -100 c-2 -16 -4 -5 -4 22 0 28 2 40 4 28 2 -13 2 -35 0 -50z m-7304 -177
c170 -57 318 -154 474 -307 450 -443 797 -1227 883 -1994 17 -156 12 -160 -36
-25 -301 841 -648 1473 -984 1793 -190 181 -351 258 -571 274 -201 14 -357
-53 -458 -197 -112 -160 -159 -364 -180 -785 -7 -141 -8 -148 -9 -60 -3 146
16 411 39 560 66 436 223 690 470 760 87 24 273 15 372 -19z m-83 -296 c389
-93 777 -579 1162 -1455 137 -311 275 -687 288 -785 5 -36 14 -101 20 -145 16
-123 13 -451 -6 -559 -17 -101 -55 -219 -82 -255 -31 -42 -236 -114 -467 -163
-94 -20 -139 -23 -310 -23 l-200 0 -48 28 c-43 25 -157 148 -157 170 0 4 8 7
18 6 85 -8 152 63 197 211 41 135 55 427 35 701 -24 318 -32 413 -51 569 -78
645 -201 1088 -363 1307 -42 57 -120 123 -131 111 -3 -3 13 -17 35 -32 233
-154 426 -890 489 -1866 24 -372 21 -568 -14 -729 -34 -163 -105 -261 -188
-261 l-43 0 -48 80 c-177 298 -358 823 -437 1268 l-24 132 -195 0 c-107 0
-201 4 -209 9 -17 11 -15 -1 -31 272 -16 265 -8 706 14 829 67 380 199 555
449 600 70 12 196 3 297 -20z m7103 -122 c4 -12 5 -23 4 -24 -5 -4 -112 -33
-114 -31 -3 3 90 75 98 76 4 1 9 -9 12 -21z m7 -112 c0 -102 -6 -108 -168
-157 -74 -22 -135 -39 -137 -37 -1 1 -6 42 -10 89 l-7 85 154 46 c84 26 156
47 161 47 4 1 7 -32 7 -73z m-4268 40 c43 -15 131 -66 125 -72 -2 -2 -20 3
-41 11 -95 40 -250 26 -369 -33 -133 -65 -268 -230 -341 -414 -83 -212 -104
-409 -56 -542 31 -85 98 -164 173 -201 48 -24 49 -25 17 -20 -103 18 -203 102
-237 198 -25 71 -25 270 0 387 34 156 93 307 163 412 78 117 265 249 400 282
61 15 103 13 166 -8z m79 -72 c175 -55 244 -314 164 -619 -33 -127 -137 -288
-269 -420 -123 -122 -207 -167 -310 -167 -106 1 -176 30 -252 106 -49 50 -64
73 -82 129 -77 238 53 651 268 850 92 85 173 123 290 136 78 8 129 4 191 -15z
m-3704 -981 c-2 -16 -4 -3 -4 27 0 30 2 43 4 28 2 -16 2 -40 0 -55z m7068 -50
c-49 -118 -170 -226 -318 -284 -79 -30 -86 -31 -192 -26 -60 3 -128 11 -150
18 l-40 12 45 19 c339 147 461 201 550 245 58 28 108 52 113 52 4 1 0 -16 -8
-36z m-7058 -160 c-3 -10 -5 -4 -5 12 0 17 2 24 5 18 2 -7 2 -21 0 -30z"/>
<path d="M1980 7737 c0 -3 -61 -306 -135 -673 -74 -368 -136 -680 -137 -693
-3 -23 11 -28 392 -146 217 -67 398 -119 401 -116 3 3 43 209 88 456 45 248
91 500 102 560 68 367 86 471 80 477 -3 3 -78 18 -166 33 -88 15 -191 35 -230
46 -39 11 -85 17 -105 14 -28 -4 -31 -3 -15 5 15 8 10 9 -25 5 -29 -3 -38 -2
-25 3 15 7 3 11 -45 16 -36 3 -91 9 -122 13 -32 3 -58 3 -58 0z m160 -37 c63
-11 138 -24 165 -29 28 -5 140 -24 250 -42 110 -18 202 -34 203 -35 2 -1 -11
-84 -29 -184 l-33 -181 -144 -119 -144 -120 88 2 89 2 -73 5 -73 6 123 101
c68 56 124 100 126 99 1 -1 -5 -46 -15 -99 l-17 -96 -35 -2 -36 -1 33 -4 c17
-2 32 -7 32 -11 1 -20 -154 -858 -159 -864 -5 -6 -754 217 -770 229 -2 1 25
147 60 324 35 177 65 308 67 291 l3 -32 78 0 77 0 119 81 c66 44 121 82 124
85 2 2 -43 3 -100 2 l-104 -2 89 -3 90 -4 -112 -74 -112 -75 -70 0 -70 0 1 38
c1 20 4 51 8 67 6 30 6 30 91 36 l85 5 -87 2 c-95 2 -94 1 -82 62 5 23 9 28
16 18 6 -8 7 3 4 32 -5 34 -4 40 4 25 9 -16 9 -14 5 13 -3 23 -1 31 7 26 8 -5
9 3 5 28 -3 23 -1 35 6 36 7 1 57 6 112 11 l100 10 -107 -4 c-60 -2 -108 -1
-108 3 0 32 66 321 68 300 5 -47 17 -31 14 17 -5 53 -15 51 138 25z"/>
<path d="M2100 7650 l-85 -6 70 -1 c39 -1 111 2 160 6 l90 8 -75 0 c-41 -1
-113 -4 -160 -7z"/>
<path d="M2509 7381 l64 -6 -131 -105 -131 -105 -213 -5 -213 -6 212 -2 212
-2 138 111 c76 62 142 116 148 120 5 5 -26 8 -70 7 l-80 -1 64 -6z"/>
<path d="M2215 7370 l-80 -6 65 -1 c36 -1 106 2 155 6 l90 8 -75 0 c-41 -1
-111 -4 -155 -7z"/>
<path d="M2354 6931 c-64 -5 -75 -10 -114 -44 -24 -20 -41 -39 -39 -40 2 -2
99 7 214 19 116 11 194 22 175 22 -19 1 -96 -5 -170 -13 -74 -8 -148 -15 -165
-15 l-30 0 30 29 c30 30 30 30 200 39 122 6 142 9 70 9 -55 0 -132 -3 -171 -6z"/>
<path d="M1837 6894 c-9 -10 -9 -84 1 -84 4 0 27 18 52 40 42 37 43 39 20 40
-14 0 -34 3 -45 6 -11 3 -24 2 -28 -2z m60 -14 c9 0 3 -9 -15 -25 -37 -31 -42
-31 -42 -2 0 29 9 39 28 32 7 -3 20 -5 29 -5z"/>
<path d="M1831 7572 c-12 -23 -71 -148 -132 -279 -60 -131 -128 -271 -150
-311 -21 -41 -39 -77 -39 -82 0 -4 -39 -92 -86 -194 -48 -103 -85 -189 -82
-191 3 -3 68 -27 146 -55 124 -43 142 -47 146 -32 3 9 19 93 36 186 18 93 38
187 46 208 8 22 11 44 8 49 -2 5 5 48 16 96 11 49 23 104 25 123 2 19 6 44 8
55 3 11 10 55 17 98 12 73 22 93 33 65 4 -8 6 -7 6 4 1 9 -4 18 -10 20 -7 2
-2 47 15 137 15 74 24 136 22 138 -3 3 -14 -13 -25 -35z m-19 -147 c-16 -81
-20 -91 -45 -99 -15 -5 -29 -7 -32 -5 -3 3 16 52 42 108 26 56 49 98 50 94 2
-5 -5 -49 -15 -98z m-22 -112 c0 -5 -7 -45 -16 -90 l-17 -83 -51 -2 -51 -2 48
-3 c42 -4 47 -7 47 -29 0 -23 -3 -24 -65 -24 -36 0 -65 3 -65 6 0 3 25 54 56
114 41 81 61 110 77 113 12 2 25 5 30 6 4 0 7 -2 7 -6z m-50 -256 c0 -8 -5
-39 -11 -69 l-11 -55 -85 -7 c-47 -4 -87 -6 -88 -4 -2 2 12 36 30 76 l34 72
65 0 c48 0 66 -4 66 -13z m-30 -162 c0 -25 0 -25 -95 -25 -52 0 -95 3 -95 8 1
28 27 35 148 40 39 2 42 0 42 -23z m-12 -62 l-3 -28 -108 -3 -108 -3 16 31 16
30 95 0 95 0 -3 -27z m-8 -45 c0 -12 -69 -351 -72 -353 -3 -4 -260 83 -263 88
-1 1 27 62 61 135 l64 132 105 0 c58 0 105 -1 105 -2z"/>
<path d="M870 7273 c0 -45 54 -393 60 -386 4 4 53 97 108 206 l102 197 -135 0
c-122 0 -135 -2 -135 -17z m240 -3 c0 -5 -40 -87 -90 -182 -49 -95 -90 -168
-90 -162 0 11 -35 258 -46 322 l-5 32 116 0 c66 0 115 -4 115 -10z"/>
<path d="M1806 7239 c-4 -28 -5 -53 -3 -56 3 -2 8 19 12 47 4 28 5 53 2 56 -2
3 -7 -19 -11 -47z"/>
<path d="M1791 7154 c0 -11 3 -14 6 -6 3 7 2 16 -1 19 -3 4 -6 -2 -5 -13z"/>
<path d="M3993 5754 c-9 -4 -13 -29 -13 -75 0 -50 3 -67 13 -65 6 3 25 7 40
10 27 6 28 8 25 69 -3 58 -5 62 -28 64 -14 1 -31 -1 -37 -3z m56 -108 c-2 -3
-16 -7 -32 -11 l-27 -7 0 55 c0 50 2 56 23 59 19 3 23 -3 31 -45 5 -26 7 -49
5 -51z"/>
<path d="M6842 3403 c-22 -9 -52 -81 -52 -126 0 -29 8 -55 23 -78 67 -100 164
34 113 156 -19 44 -50 62 -84 48z m63 -37 c26 -39 30 -91 11 -141 -29 -75 -84
-67 -106 17 -11 39 1 109 22 136 17 20 56 14 73 -12z"/>
<path d="M11281 2958 c-151 -37 -277 -70 -279 -73 -3 -3 -7 -61 -10 -130 -4
-104 -2 -125 9 -120 8 3 135 38 283 79 147 41 269 76 271 78 6 7 12 229 6 232
-3 1 -129 -28 -280 -66z m269 -52 c0 -91 -2 -105 -17 -110 -10 -2 -119 -32
-243 -66 -124 -34 -238 -66 -254 -71 -16 -5 -31 -7 -33 -5 -2 2 -1 54 3 114
l7 111 261 64 c143 36 264 66 269 66 4 1 7 -46 7 -103z"/>
<path d="M10680 2774 c-113 -35 -235 -73 -271 -84 l-66 -20 -6 -107 c-3 -60
-4 -110 -1 -112 2 -2 127 31 278 74 l275 78 5 41 c12 95 13 196 2 195 -6 0
-103 -30 -216 -65z m206 -56 c-4 -57 -8 -103 -9 -104 -1 -1 -120 -35 -264 -76
l-263 -74 1 76 c2 128 -20 112 264 200 138 43 256 79 264 79 11 1 13 -17 7
-101z"/>
<path d="M11850 2770 c-91 -32 -209 -74 -264 -92 -70 -23 -101 -39 -107 -53
-10 -25 -62 -391 -57 -408 2 -9 88 22 277 99 150 62 274 114 276 116 2 2 15
82 30 178 14 96 29 185 32 198 3 15 1 22 -8 21 -8 0 -88 -27 -179 -59z m168
13 c-3 -16 -15 -99 -28 -185 l-24 -158 -36 -14 c-19 -8 -140 -57 -268 -110
l-233 -95 6 32 c3 18 17 108 31 202 13 93 26 171 28 172 6 6 501 182 515 182
9 1 12 -8 9 -26z"/>
<path d="M9890 2538 c-168 -50 -307 -92 -309 -93 -5 -6 -34 -245 -30 -249 4
-4 640 172 647 179 4 4 31 200 32 233 0 15 -6 22 -17 21 -10 0 -155 -41 -323
-91z m314 -38 c-9 -63 -16 -115 -17 -116 -5 -5 -620 -174 -622 -172 -1 2 4 53
12 114 l15 110 312 91 c171 50 312 90 313 89 1 -1 -5 -53 -13 -116z"/>
<path d="M11290 2590 c-69 -21 -194 -58 -279 -84 -85 -25 -156 -48 -158 -50
-10 -9 -154 -479 -149 -484 3 -2 81 21 173 53 287 99 446 155 449 158 3 3 104
434 104 443 0 7 -10 4 -140 -36z m117 -2 c-3 -13 -24 -107 -48 -210 l-42 -187
-101 -35 c-56 -19 -188 -64 -295 -100 -106 -37 -195 -65 -197 -63 -4 4 131
446 138 453 2 1 64 21 138 43 74 22 194 58 265 80 72 22 134 40 139 40 4 1 6
-9 3 -21z"/>
<path d="M9124 2323 l-331 -95 -12 -135 c-7 -74 -11 -136 -9 -137 2 -2 66 16
143 39 77 23 231 68 342 101 l202 58 5 56 c17 176 18 210 4 209 -7 0 -162 -43
-344 -96z m333 -35 c-5 -62 -12 -116 -16 -120 -3 -3 -130 -43 -281 -87 -151
-44 -297 -87 -325 -95 -27 -8 -50 -14 -51 -13 -3 6 22 236 27 242 8 7 618 183
639 184 13 1 14 -14 7 -111z"/>
<path d="M10483 2322 c-155 -54 -285 -101 -289 -105 -8 -8 -133 -460 -128
-466 4 -4 567 188 576 197 3 4 13 30 21 57 8 28 40 128 71 224 31 95 56 177
56 182 0 15 -17 10 -307 -89z m287 71 c0 -5 -31 -104 -68 -222 -68 -212 -69
-214 -103 -227 -65 -25 -512 -175 -514 -172 -4 5 113 429 120 436 6 7 541 190
558 191 4 1 7 -2 7 -6z"/>
<path d="M9740 2097 l-315 -92 -28 -115 c-16 -63 -43 -177 -62 -252 l-32 -138
22 6 c12 3 161 51 331 107 l308 102 58 215 c31 118 60 225 63 238 4 17 1 22
-12 21 -10 -1 -160 -42 -333 -92z m330 66 c-1 -5 -27 -104 -59 -222 -45 -170
-61 -216 -77 -222 -45 -18 -607 -200 -609 -197 -1 2 23 109 54 238 l56 234
300 87 c300 87 335 96 335 82z"/>
<path d="M7930 1922 c-140 -30 -257 -56 -258 -58 -6 -4 14 -263 20 -269 3 -3
126 24 273 61 l268 67 -7 90 c-3 50 -6 107 -6 129 0 30 -4 38 -17 37 -10 -1
-133 -26 -273 -57z m280 -76 l0 -114 -250 -62 c-138 -34 -253 -60 -256 -57 -8
7 -22 231 -15 239 7 7 464 106 499 107 22 1 22 -1 22 -113z"/>
<path d="M9215 1926 c-55 -18 -207 -66 -339 -107 -197 -61 -240 -78 -247 -95
-20 -55 -135 -484 -129 -484 7 0 479 137 675 195 l80 24 43 243 c23 134 42
246 42 251 0 11 -18 7 -125 -27z m70 -218 c-28 -159 -45 -234 -55 -240 -15 -8
-696 -208 -710 -208 -6 0 56 236 112 429 l13 44 325 102 c179 57 332 103 340
104 14 1 10 -34 -25 -231z"/>
<path d="M8110 1609 c-201 -55 -368 -103 -371 -107 -10 -10 -141 -533 -136
-539 3 -2 182 47 398 109 l394 113 12 55 c7 30 31 141 53 245 23 105 43 198
46 208 4 12 0 17 -13 16 -10 0 -182 -46 -383 -100z m327 -169 l-53 -244 -378
-109 c-208 -59 -381 -106 -383 -103 -3 3 24 119 59 258 l65 253 369 100 c203
55 370 98 371 95 2 -3 -21 -115 -50 -250z"/>
<path d="M7290 7530 c-58 -5 -24 -6 90 -3 l185 4 145 -208 c80 -113 160 -227
177 -253 31 -43 34 -57 58 -235 24 -185 31 -235 56 -418 7 -48 10 -89 8 -91
-2 -3 -36 2 -74 10 -122 24 -115 21 -115 57 -1 79 -80 175 -185 224 -55 25
-70 27 -180 28 -110 0 -125 -2 -177 -27 -32 -15 -79 -47 -106 -72 -47 -44 -48
-45 -91 -35 -24 5 -49 8 -54 6 -6 -2 14 -8 45 -15 l55 -11 50 48 c77 74 141
96 283 95 102 0 121 -3 171 -26 30 -14 72 -40 93 -58 46 -41 86 -117 86 -165
0 -19 2 -35 4 -35 2 0 48 -9 101 -20 54 -11 100 -18 103 -15 5 4 -7 116 -28
273 -23 167 -30 222 -40 307 -6 50 -15 103 -20 118 -5 16 -89 141 -187 278
l-177 249 -90 -2 c-50 -1 -134 -5 -186 -8z"/>
<path d="M6885 7510 l-100 -6 85 -1 c47 0 137 3 200 7 l115 7 -100 -1 c-55 0
-145 -3 -200 -6z"/>
<path d="M6421 7469 c1 -19 5 -59 9 -89 7 -45 8 -41 4 28 l-6 84 59 -7 c32 -4
61 -10 64 -14 4 -3 24 -99 45 -213 21 -114 40 -206 42 -203 5 5 -69 411 -77
424 -3 5 -36 12 -73 16 l-68 7 1 -33z"/>
<path d="M6695 7478 c25 -98 43 -161 44 -148 0 8 -8 47 -18 87 l-19 72 42 4
41 4 -48 1 c-45 2 -47 1 -42 -20z"/>
<path d="M6161 7473 l-95 -4 -54 -46 c-62 -53 -56 -67 26 -60 l47 3 -53 2
c-30 1 -52 6 -50 10 2 5 21 24 43 44 40 35 41 36 147 40 l107 3 6 -55 c8 -71
14 -85 13 -35 -1 61 -11 100 -28 100 -8 1 -57 -1 -109 -2z"/>
<path d="M5655 7421 c-23 -5 -31 -12 -33 -34 -2 -17 2 -29 12 -33 17 -7 72 24
101 56 18 20 18 20 -16 19 -19 -1 -47 -4 -64 -8z m75 -5 c0 -7 -76 -56 -88
-56 -7 0 -12 11 -12 24 0 19 6 26 28 29 40 6 72 8 72 3z"/>
<path d="M5290 7240 c0 -93 2 -170 4 -170 8 0 271 223 271 229 0 3 -4 30 -8
59 l-8 52 -129 0 -130 0 0 -170z m257 110 l10 -50 -116 -98 c-64 -54 -122
-102 -128 -106 -10 -6 -13 27 -13 148 l0 156 119 0 118 0 10 -50z"/>
<path d="M6223 7091 c72 -149 133 -268 136 -266 2 3 -9 118 -25 257 -16 139
-30 245 -32 236 -3 -15 26 -296 44 -423 4 -29 -30 31 -120 213 -69 138 -127
252 -130 252 -2 0 55 -121 127 -269z"/>
<path d="M6442 7285 c0 -22 14 -164 31 -315 l32 -275 104 -42 c57 -24 106 -41
109 -38 3 3 -12 100 -33 216 -22 117 -41 207 -43 201 -2 -6 13 -96 32 -201 20
-104 36 -194 36 -200 0 -5 -44 8 -98 31 l-99 40 -32 302 c-33 305 -39 353 -39
281z"/>
<path d="M6741 7300 c0 -8 40 -172 88 -365 49 -192 89 -343 90 -335 0 8 -40
173 -88 365 -49 193 -89 343 -90 335z"/>
<path d="M4643 7027 c1 -24 -4 -41 -13 -47 -13 -8 -12 -10 2 -10 24 0 27 10
18 55 l-9 40 2 -38z"/>
<path d="M5392 6933 l-133 -98 132 -3 c72 -1 133 -1 134 0 6 6 10 198 5 198
-3 0 -65 -44 -138 -97z m130 -8 l-3 -85 -117 0 c-67 0 -112 4 -106 9 18 17
218 161 224 161 3 0 4 -38 2 -85z"/>
<path d="M8054 6800 c3 -19 10 -69 15 -110 6 -41 17 -122 25 -180 8 -58 18
-131 22 -162 4 -40 11 -59 23 -63 27 -8 314 -65 317 -63 3 4 -353 544 -384
584 l-23 29 5 -35z m376 -551 c8 -14 -14 -11 -142 15 l-152 31 -33 230 c-18
127 -32 239 -32 250 -1 15 310 -439 359 -526z"/>
<path d="M6921 6562 c-1 -24 31 -43 72 -41 14 0 8 5 -17 12 -22 7 -42 21 -47
32 -7 19 -8 19 -8 -3z"/>
<path d="M7387 6486 c-60 -25 -74 -33 -66 -39 7 -7 352 -57 357 -53 7 8 -37
59 -74 85 -52 37 -140 40 -217 7z m186 0 c31 -13 95 -72 86 -80 -4 -3 -289 39
-312 47 -7 2 13 13 43 25 64 24 137 28 183 8z"/>
<path d="M3140 7341 l0 -101 90 0 c96 0 94 -2 104 57 5 31 3 34 -78 82 -126
76 -116 79 -116 -38z m136 13 c49 -31 51 -34 45 -66 l-7 -33 -82 -3 -82 -3 0
91 0 92 38 -23 c20 -12 60 -37 88 -55z"/>
<path d="M2923 7364 c-51 -44 -53 -48 -53 -95 l0 -49 55 0 55 0 -2 38 c-1 36
-1 36 -5 5 -4 -32 -6 -33 -49 -33 l-44 0 0 44 c0 39 4 47 44 80 24 20 47 36
50 36 3 0 7 -21 9 -47 3 -47 3 -47 5 10 1 31 -1 57 -5 57 -5 0 -32 -21 -60
-46z"/>
<path d="M3695 7390 c17 -4 41 -8 55 -8 22 0 22 1 -5 8 -16 4 -41 8 -55 8 -22
0 -22 -1 5 -8z"/>
<path d="M3230 7190 l-95 -5 -3 -72 -3 -73 111 0 111 0 -3 77 c-2 42 -7 77
-13 78 -5 0 -53 -1 -105 -5z m110 -70 l0 -70 -100 0 -100 0 0 65 0 64 93 4
c50 1 95 4 100 5 4 1 7 -29 7 -68z"/>
<path d="M2856 7162 c-3 -5 -7 -33 -10 -63 l-5 -54 11 58 10 57 45 0 45 0 -4
-75 c-2 -41 0 -75 5 -75 4 0 7 36 7 80 l0 80 -49 0 c-28 0 -52 -4 -55 -8z"/>
<path d="M2830 7028 c0 -15 8 -18 53 -16 l52 1 -45 4 c-24 3 -48 10 -52 16 -5
8 -8 6 -8 -5z"/>
<path d="M3177 6983 c-65 -4 -68 -5 -61 -26 11 -36 19 -39 90 -28 l69 10 -71
-5 c-64 -4 -72 -3 -76 14 -5 18 3 20 95 26 77 6 102 4 108 -6 6 -9 -1 -15 -24
-19 l-32 -6 39 -2 c31 -1 37 2 32 15 -3 9 -6 20 -6 25 0 9 -20 9 -163 2z"/>
<path d="M2827 6964 c-4 -4 -7 -22 -7 -41 0 -25 4 -33 18 -33 13 0 14 2 4 9
-8 4 -12 19 -10 32 3 21 9 24 56 27 50 3 52 2 52 -22 0 -22 -5 -25 -42 -29
l-43 -4 45 1 c43 1 45 2 45 31 0 29 -1 30 -55 33 -31 2 -59 0 -63 -4z"/>
<path d="M990 5952 l0 -59 97 -41 c110 -47 115 -46 111 32 l-3 49 -90 38 c-49
21 -96 38 -102 39 -9 0 -13 -18 -13 -58z m115 4 l80 -34 -2 -42 c-1 -23 -4
-44 -6 -47 -4 -3 -164 63 -175 72 -5 5 11 85 17 85 4 0 42 -15 86 -34z"/>
<path d="M8470 5641 c0 -4 269 -80 598 -170 328 -89 606 -165 617 -168 13 -3
17 -2 10 5 -5 5 -262 78 -570 162 -308 83 -581 158 -607 165 -27 8 -48 10 -48
6z"/>
<path d="M7720 5531 c0 -4 39 -23 88 -40 537 -197 794 -282 980 -324 l101 -23
-287 -48 c-158 -26 -292 -49 -299 -51 -8 -3 -5 -30 12 -95 13 -50 26 -94 28
-97 3 -3 34 6 69 20 138 55 271 77 472 77 80 0 146 3 146 6 0 8 -58 92 -97
142 -19 23 -31 42 -26 42 4 0 31 -28 58 -61 61 -74 94 -99 132 -99 54 0 58 10
33 94 -14 47 -29 77 -39 80 -9 3 -74 21 -146 41 -71 20 -258 73 -415 116 -157
44 -397 112 -535 150 -137 38 -256 72 -262 74 -7 2 -13 1 -13 -4z m255 -77
c51 -15 1005 -283 1081 -303 40 -11 42 -13 61 -78 l21 -68 -29 -9 c-37 -11
-60 4 -129 87 l-55 64 -169 42 c-217 54 -897 282 -835 281 2 0 27 -7 54 -16z
m908 -333 c13 -5 47 -41 76 -80 l51 -71 -88 0 c-194 0 -381 -30 -512 -83 l-60
-25 -9 37 c-11 42 -26 112 -26 126 0 5 122 30 270 56 149 25 271 47 272 48 1
0 13 -3 26 -8z"/>
<path d="M6906 5411 c5 -5 180 -77 389 -161 209 -84 523 -210 698 -281 175
-71 322 -129 326 -129 9 0 -22 136 -33 147 -8 8 -1366 433 -1383 433 -4 0 -3
-4 3 -9z m249 -80 c44 -13 1022 -319 1076 -337 46 -14 47 -16 62 -74 8 -33 13
-60 10 -60 -5 0 -1129 452 -1168 470 -26 12 -17 12 20 1z"/>
<path d="M9665 5285 c-5 -3 -127 -25 -270 -50 -143 -25 -265 -47 -272 -50 -8
-2 -3 -29 14 -87 14 -46 29 -87 33 -91 4 -4 31 2 61 14 110 43 255 69 427 76
89 3 162 8 162 11 0 3 -23 45 -52 94 -51 86 -65 97 -103 83z m98 -101 c20 -34
37 -64 37 -68 0 -3 -53 -6 -117 -6 -148 0 -289 -21 -401 -60 -48 -16 -91 -31
-96 -32 -11 -4 -58 145 -48 153 4 4 133 29 287 56 250 44 281 48 291 34 6 -9
27 -44 47 -77z"/>
<path d="M2272 5419 l3 -80 132 -60 c73 -32 137 -59 143 -59 15 0 13 155 -2
167 -15 11 -259 113 -271 113 -4 0 -7 -36 -5 -81z m144 12 l119 -50 3 -71 c3
-84 16 -84 -146 -9 l-107 48 -3 66 c-2 36 1 65 6 65 4 0 62 -22 128 -49z"/>
<path d="M10536 3714 c-43 -7 -84 -15 -91 -17 -7 -3 -15 -87 -24 -262 -7 -141
-11 -258 -9 -260 4 -4 225 58 232 66 3 3 10 86 16 185 5 98 12 207 15 242 l4
62 -32 -1 c-18 -1 -68 -7 -111 -15z m119 -146 c-4 -84 -10 -191 -14 -237 l-6
-84 -104 -28 c-58 -16 -106 -27 -107 -26 -3 3 24 489 28 492 2 2 159 28 202
34 4 1 5 -68 1 -151z"/>
<path d="M5590 3253 c-89 -16 -243 -57 -286 -77 -38 -17 -64 -40 -95 -81 -24
-32 -51 -67 -60 -79 -42 -55 -86 -240 -114 -481 -19 -156 -30 -620 -18 -725 7
-56 9 3 9 225 1 450 44 791 121 952 26 57 50 71 101 58 40 -10 122 -100 165
-183 l38 -73 -43 31 c-82 58 -142 38 -188 -63 -52 -112 -65 -205 -65 -462 1
-462 75 -1051 171 -1356 67 -215 209 -419 290 -419 27 0 70 34 89 71 9 16 25
68 37 116 68 277 -30 1260 -177 1784 -45 158 -75 241 -125 344 -57 117 -115
187 -185 220 l-49 23 39 40 c50 49 114 73 297 111 78 16 127 29 108 29 -19 -1
-46 -3 -60 -5z m-210 -430 c81 -54 92 -74 176 -341 5 -18 -10 -8 -81 53 -99
84 -89 81 -124 33 -17 -23 -31 -45 -31 -50 0 -4 64 -61 143 -128 140 -118 143
-121 154 -173 6 -28 10 -53 8 -55 -1 -1 -77 36 -169 83 -115 60 -168 82 -171
73 -2 -7 -9 -32 -14 -56 l-9 -43 174 -84 c96 -46 183 -87 194 -90 18 -6 22
-16 36 -99 l7 -39 -54 6 c-30 4 -103 9 -164 12 -60 3 -129 8 -152 11 l-43 5 0
-70 0 -71 214 0 214 0 7 -70 c4 -38 7 -73 7 -77 0 -7 -28 -17 -284 -99 l-118
-37 6 -41 c4 -23 9 -46 13 -52 4 -8 66 8 201 52 107 34 195 62 196 61 1 -1 4
-33 8 -72 l6 -70 -163 -131 c-160 -129 -162 -131 -160 -168 5 -79 9 -78 171
63 83 72 153 131 155 131 2 0 7 -32 11 -70 l6 -70 -125 -151 -124 -150 22 -35
c12 -18 24 -34 27 -34 3 0 48 57 100 125 64 85 96 120 99 108 9 -45 -8 -264
-27 -331 -22 -80 -41 -114 -76 -137 -50 -33 -124 27 -204 164 -138 234 -205
559 -262 1266 -22 270 -24 378 -10 515 29 271 110 400 210 333z m95 -305 c88
-74 93 -82 111 -182 l7 -38 -129 108 c-71 59 -131 109 -132 110 -4 3 50 74 56
74 1 0 41 -32 87 -72z m152 -373 c2 -1 6 -23 9 -48 l7 -47 -182 88 -182 87 6
35 c4 19 9 38 11 42 3 4 78 -29 167 -74 89 -45 163 -83 164 -83z m-49 -242
c85 -5 92 -7 92 -27 0 -11 3 -31 6 -43 l6 -23 -206 0 -206 0 0 56 0 57 108 -7
c59 -3 149 -9 200 -13z m128 -308 c3 -20 4 -38 2 -40 -3 -3 -87 -32 -188 -65
-195 -63 -200 -63 -200 -8 0 26 5 29 183 87 100 32 185 60 189 60 4 1 10 -15
14 -34z m24 -252 c-1 -36 -7 -44 -150 -165 l-149 -128 -10 37 c-9 32 -8 38 12
53 12 10 83 68 157 129 74 60 136 110 138 111 1 0 2 -17 2 -37z m-77 -412
c-54 -72 -101 -130 -104 -130 -3 -1 -11 11 -17 25 -11 24 -6 33 100 162 109
132 113 135 116 104 3 -27 -12 -51 -95 -161z"/>
<path d="M7989 3107 c-58 -22 -100 -52 -166 -119 -75 -76 -164 -216 -192 -301
-37 -113 -73 -281 -75 -347 -1 -56 4 -73 30 -120 81 -143 231 -179 399 -96
135 67 220 157 295 311 62 129 83 216 79 331 -3 73 -9 99 -32 147 -40 81 -100
153 -149 178 -52 26 -141 34 -189 16z m179 -24 c44 -21 102 -88 142 -168 66
-130 49 -291 -50 -493 -68 -137 -152 -223 -276 -283 -173 -84 -304 -55 -384
85 -23 40 -30 63 -30 108 0 90 52 306 99 412 52 118 193 286 274 328 76 38
156 42 225 11z"/>
</g>
</svg>
